<?xml version="1.0" standalone="no"?>
<!DOCTYPE svg PUBLIC "-//W3C//DTD SVG 20010904//EN"
 "http://www.w3.org/TR/2001/REC-SVG-20010904/DTD/svg10.dtd">
<svg version="1.0" xmlns="http://www.w3.org/2000/svg"
 width="700.000000pt" height="700.000000pt" viewBox="0 0 700.000000 700.000000"
 preserveAspectRatio="xMidYMid meet">
<metadata>
Created by potrace 1.14, written by Peter Selinger 2001-2017
</metadata>
<g transform="translate(0.000000,700.000000) scale(0.100000,-0.100000)"
fill="#000000" stroke="none">
<path d="M3490 6639 c-195 -197 -356 -362 -358 -367 -2 -8 460 -946 473 -961
2 -1 87 38 189 89 l185 93 -122 241 c-67 132 -122 246 -122 251 0 13 37 9 175
-22 148 -32 305 -83 450 -145 117 -49 332 -164 338 -180 2 -4 8 -8 14 -8 13 0
169 -112 248 -178 503 -422 813 -988 889 -1622 12 -92 19 -190 20 -258 l1 -42
207 2 207 3 0 45 c-1 70 -15 283 -18 289 -2 3 -7 33 -10 66 -20 177 -95 459
-176 664 -67 170 -206 435 -292 556 -48 67 -179 238 -207 269 -47 54 -267 274
-311 311 -395 339 -888 572 -1392 659 l-38 7 150 149 c83 82 150 152 150 157
0 10 -283 294 -290 292 -3 -1 -165 -163 -360 -360z"/>
<path d="M265 6855 c-88 -62 -160 -120 -160 -127 0 -7 42 -71 93 -143 420
-584 691 -969 687 -973 -2 -3 -50 -5 -106 -6 l-102 -1 1 -195 c0 -107 1 -200
1 -207 1 -9 51 -12 202 -12 111 0 204 -2 207 -5 6 -7 5 -394 -2 -404 -2 -4
-95 -7 -205 -6 -177 1 -201 -1 -202 -15 -1 -21 -1 -373 0 -388 1 -8 55 -12
202 -12 111 0 203 -2 206 -5 3 -3 5 -95 5 -205 -1 -146 2 -200 11 -203 7 -2
100 -3 207 -3 l195 1 3 204 c1 112 4 206 6 207 2 2 93 4 204 4 146 0 201 3
204 12 3 10 2 379 -1 398 -1 3 -89 6 -197 5 -108 -1 -200 2 -206 5 -9 6 -14
396 -5 406 3 2 95 4 205 4 149 0 201 3 204 12 3 10 2 356 -1 394 -1 8 -32 11
-103 11 -107 0 -116 4 -84 42 7 8 33 44 58 80 25 36 194 274 377 528 182 255
331 468 331 472 0 7 -236 181 -303 223 -28 17 -30 17 -42 0 -7 -10 -108 -151
-223 -313 -116 -162 -215 -299 -219 -305 -4 -5 -44 -61 -88 -123 -44 -61 -135
-189 -202 -282 l-122 -171 -28 38 c-15 21 -32 42 -36 48 -8 11 -307 430 -360
505 -17 25 -36 50 -42 57 -5 7 -98 136 -205 287 -107 152 -197 276 -200 276
-3 0 -77 -52 -165 -115z"/>
<path d="M679 3518 c-4 -35 8 -279 15 -314 2 -11 8 -47 12 -79 4 -33 8 -62 9
-65 1 -3 5 -25 9 -50 26 -151 110 -443 157 -546 10 -22 28 -65 39 -95 38 -97
149 -300 234 -428 167 -255 386 -496 621 -684 37 -30 196 -147 199 -147 2 0
46 -26 97 -59 240 -150 512 -264 818 -342 85 -21 165 -39 177 -39 60 0 53 -11
-97 -161 -82 -82 -149 -152 -149 -155 0 -3 65 -70 144 -149 l143 -144 365 364
365 364 -238 477 c-131 262 -241 479 -243 482 -8 7 -365 -172 -365 -183 -1 -6
53 -118 119 -249 67 -132 119 -242 118 -246 -4 -10 -211 32 -328 65 -323 93
-654 269 -915 485 -66 55 -285 279 -342 350 -184 230 -345 529 -431 800 -22
69 -61 218 -68 260 -3 14 -7 32 -9 40 -3 8 -7 35 -10 60 -3 25 -8 56 -10 70
-8 49 -18 166 -20 235 -2 39 -3 76 -4 83 -1 9 -49 12 -206 12 -157 0 -205 -3
-206 -12z"/>
<path d="M5525 2891 c-218 -53 -382 -201 -454 -410 -25 -73 -32 -133 -34 -290
l-2 -115 -205 0 -205 -1 -1 -207 -1 -208 208 0 208 0 -2 -207 -2 -207 -205 -1
-205 0 -1 -208 -1 -207 208 0 208 0 0 -132 c-1 -146 15 -243 52 -324 86 -186
243 -314 439 -359 52 -12 145 -14 455 -14 371 1 394 2 465 23 255 74 431 288
455 554 2 23 1 42 -3 43 -28 4 -396 3 -401 -1 -4 -3 -11 -21 -15 -40 -10 -52
-50 -106 -103 -137 l-47 -27 -341 -1 c-188 0 -360 3 -382 8 -46 9 -116 64
-140 110 -12 23 -16 66 -18 164 l-3 133 312 0 312 0 0 207 -1 208 -300 1
c-165 1 -305 2 -311 3 -7 1 -10 68 -10 204 l1 202 310 5 310 5 0 203 c1 133
-3 203 -10 204 -5 1 -145 2 -310 3 l-300 1 -1 115 c-1 136 8 174 49 224 60 73
67 75 473 75 359 0 361 0 405 -23 52 -28 96 -87 104 -142 l7 -40 206 0 207 0
1 30 c0 27 -6 70 -20 130 -2 11 -9 32 -15 48 -72 187 -208 319 -394 383 l-82
28 -400 2 c-348 2 -409 0 -470 -15z"/>
</g>
</svg>
