<svg width="20" height="20" viewBox="0 0 20 20" fill="currentColor" xmlns="http://www.w3.org/2000/svg">
<path d="M5.24459 18.9853C4.85407 19.3758 4.2209 19.3758 3.83038 18.9853L0.294846 15.4497C-0.0956779 15.0592 -0.0956779 14.4261 0.294846 14.0355L3.83038 10.5C4.2209 10.1095 4.85407 10.1095 5.24459 10.5C5.63512 10.8905 5.63512 11.5237 5.24459 11.9142L3.41725 13.7415H16.5C17.0523 13.7415 17.5 13.2938 17.5 12.7415V12C17.5 11.4477 17.9477 11 18.5 11C19.0523 11 19.5 11.4477 19.5 12V12.7415C19.5 14.3984 18.1569 15.7415 16.5 15.7415H3.41508L5.24459 17.5711C5.63512 17.9616 5.63512 18.5947 5.24459 18.9853Z"/>
<path d="M14.7548 9.50034C15.1453 9.89087 15.7785 9.89087 16.169 9.50034L19.7046 5.96481C20.0951 5.57429 20.0951 4.94112 19.7046 4.5506L16.169 1.01506C15.7785 0.624537 15.1453 0.624537 14.7548 1.01506C14.3643 1.40559 14.3643 2.03875 14.7548 2.42928L16.5869 4.26139H3.5C1.84315 4.26139 0.5 5.60453 0.5 7.26139V8C0.5 8.55228 0.947715 9 1.5 9C2.05228 9 2.5 8.55228 2.5 8V7.26139C2.5 6.7091 2.94772 6.26139 3.5 6.26139H16.5796L14.7548 8.08613C14.3643 8.47665 14.3643 9.10982 14.7548 9.50034Z"/>
</svg>
